<?xml version="1.0" encoding="utf-8"?>
<!-- Generator: Adobe Illustrator 23.0.3, SVG Export Plug-In . SVG Version: 6.00 Build 0)  -->
<svg version="1.1" id="Capa_1" xmlns="http://www.w3.org/2000/svg" xmlns:xlink="http://www.w3.org/1999/xlink" x="0px" y="0px"
	 viewBox="0 0 693.6 419.4" style="enable-background:new 0 0 693.6 419.4;" xml:space="preserve">
<style type="text/css">
	.st0{fill:#FFFFFF;}
</style>
<g>
	<g>
		<path class="st0" d="M175.4,196.8l0.6-0.4c12.7-7.9,19.3-26.5,13.8-39.1c-1.3-2.9-9.6-13.9-14.8-20.6
			c-8.4-10.7-11.9-15.4-11.9-17.3c0-3.2,1.7-4.9,5.2-4.9l62.8-0.2V202h42.1v-87.5h57.3V77.9l-185.6,0.3c-20.4,0-32.6,18.9-33.6,32.5
			c-0.9,12.1,1.8,16.2,16.1,32.3c11.2,12.6,11.1,12.8,10.8,14.5c-0.3,1.5-0.8,2.4-1.8,3.2l-1.9,1.3H33.9v40h75.7
			C166,202,167.1,202,175.4,196.8z"/>
		<path class="st0" d="M424,202.9l41.4,0.2l-43-124.3h-60.9L319,202h41.9l5.2-16.8l52.5,0.2L424,202.9z M381,150.4
			c3.3-9.3,7.8-22.1,12-33.6c3.9,11.5,8.2,24.2,11.4,33.5L381,150.4z"/>
		<path class="st0" d="M531.5,163.4l7.6,7.3c24.2,23,31.6,28.5,35.8,29.9c3.1,1.1,9.8,1.4,42.9,1.4h42.1l-0.8-39.6l-64.6-0.9
			l-2.3-1.8c-1.5-1.2-3.9-3.5-5.5-5.2c1.7-1,3.8-2.2,5.7-3.3c13.9-8.3,20.8-21,19.6-35.9c-0.8-10.2-2.4-14.3-8.6-21.8
			c-6.1-7.3-14-12-23.1-13.6c-5.4-0.9-35.4-1-48.1-1h-45.8V202h45.1L531.5,163.4z M544.3,109.9c18.1,0,21.7,0.4,23.9,1.6
			c4.2,2.3,4.6,3.5,4.9,8.3c0.3,4.7-0.1,6.7-3.8,10.2c-0.1,0.1-0.2,0.2-0.3,0.3c-2.4,0.6-11.3,0.6-22.5,0.6h-15.1V110h12.9V109.9z"
			/>
		<path class="st0" d="M181.6,217.6l-0.9,2.7c-4.2,12.2-10.3,29.8-14,40.3c-1.4-3.9-3.3-9-5.4-15.3l-8.5-25.1l-1.1-3.1h-2.9h-39.6
			l-15.1,43c-3.8-10.7-9.9-27.7-14.3-40.3l-0.9-2.7H37.8l41.9,123.2H108l22.5-61.8c0,0.1,0.1,0.2,0.1,0.4c2.3,6.6,5.3,15.5,8.4,24.3
			c6.1,17.7,12.2,35.3,12.2,35.3l0.9,2.7h28.6l42.4-123.6L181.6,217.6L181.6,217.6z"/>
		<path class="st0" d="M255.5,216.3L213,339.5l41.1,0.4l5.2-17.4l52.8,0.4l5.5,17.4l41.4-0.2l-43.1-123.9L255.5,216.3z M273.6,288
			c2.2-6,11.7-31.9,12.7-34.8c1,2.9,8.2,24.3,11.8,34.8C287.6,287.9,279.6,287.9,273.6,288z"/>
		<path class="st0" d="M553.7,227.2c-7.5,7.7-9.2,17.3-9,21.7c0,0.5,0,1,0,1.5c-0.1,5.9-0.1,14.8,15.6,30.5c6,6.7,9.5,10.8,11,13.4
			c0.9,1.6,0.9,1.8,0.5,2.5c-0.1,0.3-0.3,0.6-0.4,0.9c-0.2,0.5-0.6,1.2-0.7,1.4c-1.5,1.2-13.9,1.2-29.5,1.2h-10.6
			c-27.1,0-39.6-0.1-41.7-1c-1.3-0.6-4.9-3.8-7.1-6.2c0.2-0.1,0.4-0.2,0.6-0.3c7.5-3.4,16.2-11,19.8-17.2c1.8-3,3.8-8.5,4.6-12.4
			c1.8-8.5-1.3-18.9-8.2-27.8c-8.2-10.5-20.2-16.8-32.7-17.3h-84.2l0.2,123l43.9,0.2l0.2-39.9c2.5,2.3,5.6,5.2,9,8.5
			c23.3,22.4,31.4,28.9,37.7,30.3c2.4,0.5,11.7,1.1,62.6,1.1h2.8c63,0,64.2,0,73.7-7.7l0.2-0.1c9.6-7.8,14.7-19.6,13.3-30.7
			c-0.9-7.1-2.8-10-11.1-20.4l-1.7-2.1c-3.2-4-7.4-9.2-10.1-12.6c-3.3-4.1-5.5-7.6-5.9-8.5c-0.8-1.9-1.1-4.1,1.1-4.1
			c1,0,3.3,0,8.4,0c16.4,0,48.9,0.1,49.2,0.1h4l0.1-38.3h-77.8C569.7,216.8,560.4,220.3,553.7,227.2z M462.2,267.5
			c-2.2,1.1-5.7,1.5-23.2,1.5c-5.6,0-9.9-0.2-13.1-0.4c0-3,0-6.4,0-9.8c0-3,0-6,0-8.7l14,0.1c8,0.1,20.1,0.1,22.5,0.9
			c3,2.2,4.7,5.6,4.5,9.1C466.9,262,466.2,265.5,462.2,267.5z"/>
	</g>
</g>
<g id="Layer_1">
</g>
</svg>
